<svg width="416" height="416" viewBox="0 0 416 416" fill="none" xmlns="http://www.w3.org/2000/svg">
<g clip-path="url(#clip0_101_2)">
<path d="M0 0V416H416V145.234C416 128.938 410.246 113.16 399.766 100.688L328.875 16.3438C320.171 5.98375 307.333 0 293.797 0H0ZM32 32H285.562C311.882 32 320 42.9206 320 52.6406C320 66.9206 304 88 304 88C382.088 124.96 382.531 124.948 382.531 153.484C382.531 193.484 384 384 384 384H32V32Z" fill="black"/>
<path d="M83.6667 156.368C83.6667 135.176 100.902 118 122.167 118C143.431 118 160.667 135.176 160.667 156.368C160.667 177.561 143.431 194.737 122.167 194.737C100.902 194.737 83.6667 177.561 83.6667 156.368Z" fill="black"/>
<path d="M263.333 233.105L301.833 169.158L340.333 245.895L366 361H58V322.632L135 245.895L160.667 271.474L147.833 309.842L160.667 322.632L224.833 233.105H263.333Z" fill="black"/>
</g>
<defs>
<clipPath id="clip0_101_2">
<rect width="416" height="416" fill="white"/>
</clipPath>
</defs>
</svg>
