<svg xmlns="http://www.w3.org/2000/svg"  viewBox="0 0 512 512" width="512px" height="512px"><path d="M 216 0 A 95.11 95.11 0 0 0 121 95 L 121 202 L 116 202 A 55.06 55.06 0 0 0 61 257 L 61 457 A 55.06 55.06 0 0 0 116 512 L 396 512 A 55.06 55.06 0 0 0 451 457 L 451 257 A 55.06 55.06 0 0 0 396 202 L 391 202 L 391 95 A 95.11 95.11 0 0 0 296 0 L 216 0 z M 216 30 L 296 30 A 65.08 65.08 0 0 1 361 95 L 361 202 L 151 202 L 151 95 A 65.08 65.08 0 0 1 216 30 z M 116 232 L 396 232 A 25 25 0 0 1 421 257 L 421 457 A 25 25 0 0 1 396 482 L 116 482 A 25 25 0 0 1 91 457 L 91 257 A 25 25 0 0 1 116 232 z M 256 272 A 55 55 0 0 0 241 379.90039 L 241 427 A 15 15 0 0 0 271 427 L 271 379.90039 A 55 55 0 0 0 256 272 z M 254.96094 302.02148 A 25 25 0 0 1 281 327 A 25 25 0 0 1 256 352 A 25 25 0 0 1 254.96094 302.02148 z"/></svg>