<?xml version="1.0" encoding="utf-8"?>
<!-- Generator: Adobe Illustrator 20.1.0, SVG Export Plug-In . SVG Version: 6.00 Build 0)  -->
<svg version="1.1" id="Layer_1" xmlns="http://www.w3.org/2000/svg" xmlns:xlink="http://www.w3.org/1999/xlink" x="0px" y="0px"
	 viewBox="0 0 1330 279" style="enable-background:new 0 0 1330 279;" xml:space="preserve">
<style type="text/css">
	.st0{fill:#FFFFFF;}
	.st1{fill:#E97D27;}
</style>
<g id="logoleft">
	<g id="Logo">
		<g id="Powered">
			<path id="powered_by" class="st0" d="M39.7,235.6c0-7.6-1.6-13.6-4.9-17.9c-3.1-4.2-8.1-6.6-13.3-6.4c-5.8,0-10.3,2-13.5,6.1
				l-0.4-5.3H0.3v65.5h8v-22.8c3.2,3.6,7.7,5.5,13.4,5.5c5.2,0.2,10.2-2.3,13.2-6.6c3.2-4.4,4.9-10.2,4.9-17.4L39.7,235.6
				L39.7,235.6z M28.4,249.2c-2.1,3-5.5,4.7-9.1,4.6c-4.6,0.2-8.9-2.3-10.9-6.5v-22.6c2-4.1,6.3-6.7,10.9-6.5
				c3.7-0.1,7.1,1.6,9.2,4.6c2.2,3.1,3.4,7.3,3.4,12.6C31.7,241.5,30.6,246.1,28.4,249.2z M48,236c0,7.3,2,13.3,5.9,17.7
				c3.9,4.4,9.5,6.9,15.4,6.7c3.9,0.1,7.8-1,11.1-3.1c3.3-2.1,5.8-5,7.5-8.5c1.8-3.9,2.7-8.1,2.6-12.4v-0.6c0-7.4-2-13.3-5.9-17.8
				c-3.9-4.4-9.5-6.9-15.4-6.7c-7.9-0.2-15.2,4.4-18.5,11.6c-1.8,3.9-2.8,8.2-2.7,12.5L48,236L48,236z M59.7,222.8
				c2.2-3.1,5.8-4.9,9.5-4.8c3.8-0.1,7.5,1.7,9.7,4.8c2.4,3.2,3.6,7.4,3.6,12.6c0,5.8-1.2,10.3-3.6,13.5c-4,5.3-11.6,6.4-16.9,2.4
				c-0.9-0.7-1.7-1.5-2.4-2.3c-2.4-3.2-3.6-7.4-3.6-12.6C56.1,230.5,57.3,225.9,59.7,222.8z M130.2,212.2h-6.4l-10.9,35.4l-9.2-35.4
				h-7.9l13.5,47.3h6.5l11-35.8l11.3,35.8h6.5l13.6-47.3h-8l-9,36.2L130.2,212.2z M202.4,251.3l-4.9-3.8c-1.4,1.9-3.1,3.4-5.1,4.6
				c-2.2,1.2-4.7,1.8-7.2,1.8c-3.7,0.1-7.3-1.5-9.8-4.3c-2.6-2.9-3.9-6.6-4-11.3H203v-3.4c0-7.5-1.7-13.3-5-17.4s-8.1-6.1-14.1-6.1
				c-3.7,0-7.3,1.1-10.3,3.1c-3.2,2.1-5.8,5.1-7.4,8.7c-1.8,3.9-2.7,8.2-2.6,12.6v1.5c0,7.1,2,12.7,5.9,16.9c4,4.2,9.1,6.3,15.4,6.3
				C192.7,260.4,198.5,257.3,202.4,251.3L202.4,251.3L202.4,251.3z M191.8,221.4c2,2.3,3,5.4,3.3,9.6v0.6h-23.4
				c0.5-4.3,1.9-7.6,4-10c2.1-2.3,5-3.6,8.1-3.6C186.9,217.9,189.8,219.1,191.8,221.4L191.8,221.4z M235.2,212
				c-1.1-0.5-2.3-0.7-3.5-0.6c-4.6-0.1-8.9,2.3-11.1,6.3l-0.1-5.5h-7.8v47.3h8v-33.6c1.9-4.5,5.4-6.8,10.6-6.8
				c1.3,0,2.6,0.1,3.9,0.3L235.2,212L235.2,212z M278.4,251.3l-4.9-3.8c-1.4,1.9-3.1,3.4-5.1,4.6c-2.2,1.2-4.7,1.8-7.2,1.8
				c-3.7,0.1-7.3-1.5-9.8-4.3c-2.6-2.9-3.9-6.6-4-11.3H279v-3.4c0-7.5-1.7-13.3-5-17.4s-8.1-6.1-14.1-6.1c-3.7,0-7.3,1.1-10.3,3.1
				c-3.2,2.1-5.8,5.1-7.4,8.7c-1.8,3.9-2.7,8.2-2.7,12.6v1.5c0,7.1,2,12.7,5.9,16.9c4,4.2,9.1,6.3,15.4,6.3
				C268.7,260.4,274.5,257.3,278.4,251.3L278.4,251.3L278.4,251.3z M267.8,221.4c2,2.3,3,5.4,3.3,9.6v0.6h-23.3
				c0.5-4.3,1.9-7.6,4-10c2-2.3,5-3.6,8.1-3.6C262.9,217.9,265.8,219.1,267.8,221.4z M286.8,236.1c0,7.2,1.7,13.1,5.1,17.6
				c3,4.3,8,6.8,13.2,6.7c5.7,0,10.1-2,13.3-5.9l0.4,5.1h7.3v-67.2h-8V217c-3.2-3.8-7.5-5.7-13-5.7c-5.3-0.1-10.2,2.4-13.3,6.6
				c-3.4,4.4-5.1,10.2-5.1,17.5v0.7H286.8z M298,222.8c2.1-3,5.5-4.7,9.1-4.6c4.7-0.2,9,2.5,11,6.7v21.7c-2.3,4.6-6,6.9-11.1,6.9
				c-3.6,0.1-7-1.6-9-4.6c-2.2-3-3.3-7.2-3.3-12.6C294.7,230.4,295.8,225.9,298,222.8L298,222.8z M399,235.7
				c0-7.5-1.6-13.5-4.8-17.8c-3.1-4.3-8.1-6.7-13.3-6.5c-5.7,0-10.1,2-13.3,6.1v-25.1h-8v67.2h7.3l0.4-5.5c3.2,4.2,7.8,6.3,13.7,6.3
				c5.2,0.1,10.2-2.3,13.2-6.6c3.3-4.4,4.9-10.2,4.9-17.4v-0.7L399,235.7L399,235.7z M387.8,249c-2,2.9-5.4,4.6-8.9,4.5
				c-5.2,0-9-2.5-11.4-7.4v-20.5c2.3-5,6.1-7.4,11.3-7.4c3.6-0.2,7,1.5,9,4.5c2.1,3,3.1,7.3,3.1,12.8C391,241.5,389.9,246,387.8,249
				z M412.9,212.2h-8.7l16.6,46.8l-1.8,4.8c-1,2.9-2.2,5-3.7,6.1c-1.9,1.2-4.1,1.8-6.3,1.7l-2.2-0.2v6.6l3,0.6l1.5,0.1
				c6.3,0,10.9-3.9,13.8-11.8l18.7-54.6h-8.5l-10.9,35.4L412.9,212.2z"/>
			<g>
				<g id="Text_3_">
					<path class="st0" d="M498.3,259.7c-0.6-1.1-1-2.6-1.3-4.2c-3.1,3.4-7,5.1-11.9,5.1c-4.6,0-8.5-1.3-11.5-4
						c-3-2.7-4.6-6.1-4.6-10.2c0-5,1.9-8.9,5.6-11.6c3.7-2.7,9.1-4,16.1-4.1h5.8V228c0-2.2-0.6-3.9-1.7-5.3c-1.1-1.3-2.9-2-5.3-2
						c-2.1,0-3.8,0.5-5,1.5s-1.8,2.4-1.8,4.2H470c0-2.7,0.8-5.3,2.5-7.6s4.1-4.2,7.2-5.5s6.6-2,10.4-2c5.8,0,10.5,1.5,13.9,4.4
						s5.1,7.1,5.1,12.4v20.5c0,4.5,0.7,7.9,1.9,10.2v0.7h-12.7V259.7z M487.8,250.9c1.9,0,3.6-0.4,5.2-1.2s2.7-1.9,3.5-3.3v-8.1
						h-4.7c-6.3,0-9.7,2.2-10.1,6.6v0.7c0,1.6,0.6,2.9,1.7,3.9C484.4,250.4,485.9,250.9,487.8,250.9z"/>
					<path class="st0" d="M514.7,235.7c0-7.4,1.7-13.3,5-17.6c3.3-4.4,7.8-6.6,13.6-6.6c4.6,0,8.4,1.7,11.4,5.2v-24.2h12.7v67.2H546
						l-0.6-5c-3.2,3.9-7.2,5.9-12.2,5.9c-5.6,0-10-2.2-13.4-6.6C516.4,249.6,514.7,243.5,514.7,235.7z M527.4,236.6
						c0,4.5,0.8,7.9,2.3,10.2c1.5,2.4,3.8,3.6,6.7,3.6c3.9,0,6.7-1.7,8.3-5v-18.8c-1.6-3.3-4.3-5-8.2-5
						C530.4,221.7,527.4,226.7,527.4,236.6z"/>
					<path class="st0" d="M583.9,244.3l8.8-31.9h13.2l-16,47.3h-12.1l-16-47.3H575L583.9,244.3z"/>
					<g>
						<path class="st0" d="M623.3,259.7h-12.7v-47.3h12.7V259.7z"/>
						<rect x="610.6" y="193.6" class="st1" width="12.7" height="13.1"/>
					</g>
					<path class="st0" d="M650,250.4c2.3,0,4.2-0.6,5.7-1.9c1.5-1.3,2.2-3,2.3-5.1h11.9c0,3.2-0.9,6.1-2.6,8.8
						c-1.7,2.7-4.1,4.7-7.1,6.2s-6.3,2.2-9.9,2.2c-6.8,0-12.1-2.2-16-6.5c-3.9-4.3-5.9-10.2-5.9-17.8v-0.8c0-7.3,1.9-13.1,5.8-17.5
						c3.9-4.3,9.2-6.5,16-6.5c5.9,0,10.7,1.7,14.2,5.1c3.6,3.4,5.4,7.9,5.4,13.5H658c-0.1-2.5-0.8-4.5-2.3-6s-3.4-2.3-5.8-2.3
						c-2.9,0-5.2,1.1-6.7,3.2c-1.5,2.1-2.3,5.6-2.3,10.5v1.3c0,4.9,0.7,8.4,2.2,10.5C644.7,249.3,647,250.4,650,250.4z"/>
					<path class="st0" d="M697.8,260.6c-6.9,0-12.6-2.1-17-6.4c-4.4-4.3-6.5-9.9-6.5-17V236c0-4.8,0.9-9,2.8-12.8
						c1.8-3.7,4.4-6.6,7.8-8.7c3.4-2,7.2-3,11.5-3c6.5,0,11.6,2,15.3,6.1s5.6,9.9,5.6,17.4v5.2h-30.1c0.4,3.1,1.6,5.6,3.7,7.4
						c2.1,1.9,4.7,2.8,7.8,2.8c4.9,0,8.7-1.8,11.4-5.3l6.2,7c-1.9,2.7-4.5,4.8-7.7,6.3C705.3,259.8,701.7,260.6,697.8,260.6z
						 M696.4,221.7c-2.5,0-4.5,0.9-6.1,2.5c-1.6,1.7-2.6,4.1-3,7.3h17.6v-1c-0.1-2.8-0.8-5-2.3-6.5
						C701.1,222.5,699,221.7,696.4,221.7z"/>
					<path class="st1" d="M739.9,259.7h-12.7v-67.2h12.7V259.7z"/>
					<g>
						<path class="st1" d="M794.1,241H791v-4h-6.9c-0.1,7-6.4,13.5-14.2,13.5s-14.2-6.6-14.2-14.4c0-7.8,6.2-14.4,14.2-14.4V218h-7
							v-5.6c-3,1.1-7.6,3.9-10.8,7.1c-8.7,8.7-9.1,22.5-2,32.5l0,0l19.7,27.3l19.7-27.3l0,0C792,247,793.5,244,794.1,241z"/>
						<path class="st0" d="M773,233v-7.3c0-0.5-2.1-0.8-3.6-0.8c-5.9,0-10.4,4.8-10.4,10.7s4.9,10.7,10.8,10.7s10.7-4.3,10.7-10.2
							c0-1.3-0.2-2.1-0.6-3.1L773,233L773,233z"/>
						<rect x="772" y="211.6" class="st1" width="6.1" height="6.1"/>
						<rect x="778.1" y="221.8" class="st0" width="4.1" height="4.1"/>
						<rect x="786.2" y="213.6" class="st1" width="8.2" height="8.2"/>
						<rect x="780.1" y="203.5" class="st0" width="6.1" height="6.1"/>
						<rect x="784.2" y="227.9" class="st1" width="4.1" height="4.1"/>
						<rect x="790.3" y="225.9" class="st0" width="4.1" height="4.1"/>
					</g>
					<path class="st1" d="M820.6,250.4c2.3,0,4.2-0.6,5.7-1.9c1.5-1.3,2.2-3,2.3-5.1h11.9c0,3.2-0.9,6.1-2.6,8.8
						c-1.7,2.7-4.1,4.7-7.1,6.2s-6.3,2.2-9.9,2.2c-6.8,0-12.1-2.2-16-6.5c-3.9-4.3-5.9-10.2-5.9-17.8v-0.8c0-7.3,1.9-13.1,5.8-17.5
						c3.9-4.3,9.2-6.5,16-6.5c5.9,0,10.7,1.7,14.2,5.1c3.6,3.4,5.4,7.9,5.4,13.5h-11.9c-0.1-2.5-0.8-4.5-2.3-6s-3.4-2.3-5.8-2.3
						c-2.9,0-5.2,1.1-6.7,3.2c-1.5,2.1-2.3,5.6-2.3,10.5v1.3c0,4.9,0.7,8.4,2.2,10.5C815.3,249.3,817.6,250.4,820.6,250.4z"/>
					<path class="st1" d="M874,259.7c-0.6-1.1-1-2.6-1.3-4.2c-3.1,3.4-7,5.1-11.9,5.1c-4.6,0-8.5-1.3-11.5-4
						c-3-2.7-4.6-6.1-4.6-10.2c0-5,1.9-8.9,5.6-11.6c3.7-2.7,9.1-4,16.1-4.1h5.8V228c0-2.2-0.6-3.9-1.7-5.3c-1.1-1.3-2.9-2-5.3-2
						c-2.1,0-3.8,0.5-5,1.5s-1.8,2.4-1.8,4.2h-12.6c0-2.7,0.8-5.3,2.5-7.6s4.1-4.2,7.2-5.5c3.1-1.3,6.6-2,10.4-2
						c5.8,0,10.5,1.5,13.9,4.4s5.1,7.1,5.1,12.4v20.5c0,4.5,0.7,7.9,1.9,10.2v0.7H874V259.7z M863.5,250.9c1.9,0,3.6-0.4,5.2-1.2
						s2.7-1.9,3.5-3.3v-8.1h-4.7c-6.3,0-9.7,2.2-10.1,6.6v0.7c0,1.6,0.6,2.9,1.7,3.9C860.1,250.4,861.6,250.9,863.5,250.9z"/>
					<path class="st1" d="M905,259.7h-12.7v-67.2H905V259.7z"/>
				</g>
			</g>
		</g>
		<path id="Local_Listing_Pro" class="st0" d="M29.1,7.8H0.4V150h79.1v-23.8H29.1V7.8L29.1,7.8z M91.8,100.5
			c0,16.2,3.8,28.8,11.3,37.8c7.5,9.1,18.1,13.6,31.6,13.6s24-4.5,31.4-13.6c7.5-9,11.2-21.6,11.2-37.7V94
			c0-16.2-3.8-28.8-11.3-37.9s-18-13.7-31.5-13.7c-13.3,0-23.8,4.6-31.3,13.7c-7.6,9.1-11.3,21.7-11.3,37.7L91.8,100.5L91.8,100.5z
			 M119.6,93.7c0-9.7,1.3-16.9,4-21.6s6.3-7,11-7c4.9,0,8.7,2.3,11.3,7c2.7,4.7,4,11.9,4,21.6l-0.1,11.7c-0.7,15.8-5.7,23.8-15,23.8
			c-10.1,0-15.1-9.5-15.1-28.5L119.6,93.7L119.6,93.7z M224.9,126.8c-2-1.6-3.4-4.1-4.2-7.6c-0.8-3.4-1.3-9.5-1.3-18.1V90.3
			c0.1-9.9,1.2-16.6,3.3-20s5.5-5.2,10.4-5.2c4.4,0,7.5,1.6,9.4,4.8c1.9,3.2,2.9,7.8,2.9,13.8h26c-0.1-13.2-3.6-23.4-10.3-30.6
			s-15.9-10.8-27.5-10.8c-13.8,0-24.2,4.4-31.3,13.1s-10.6,21.4-10.6,38v8.4c0.1,16.5,3.8,28.9,10.9,37.4s17.5,12.7,31.2,12.7
			c11,0,20-3.5,27-10.6s10.5-16.4,10.6-27.9h-26c-0.1,10.5-4.2,15.8-12.2,15.8C229.7,129.2,226.9,128.4,224.9,126.8L224.9,126.8z
			 M365.1,150v-1.7c-2.5-5.1-3.8-12.3-3.9-21.4V77.3c0-11.2-3.2-19.8-9.5-25.8s-15.3-9-26.9-9c-11.2,0-20.5,3.2-27.8,9.5
			c-7.1,6-11.2,14.9-11,24.2h27.6c0-8.1,3.5-12.1,10.4-12.1c3.1,0,5.5,1,7.1,2.9c1.6,2,2.4,5.3,2.4,10.1v8.5h-8.4
			c-13.3,0.1-23.5,3.2-30.5,9.3S284,109.3,284,120.4c0,9.3,2.9,16.9,8.7,22.8s13.2,8.8,22,8.8c8,0.2,15.6-3.6,20.1-10.2
			c0.5,2.8,1.3,5.6,2.3,8.2H365.1L365.1,150z M311.8,118.6c0-5,1.4-9,4.1-12s6.4-4.5,11.1-4.5h6.6v22c-1.2,1.8-2.8,3.4-4.8,4.4
			c-2.4,1.3-5.1,1.9-7.8,1.8C314.8,130.3,311.8,126.4,311.8,118.6L311.8,118.6z M410.1,0h-27.7v150h27.7V0L410.1,0z M507.1,7.8
			h-28.7V150h79.1v-23.8h-50.4V7.8L507.1,7.8z M602.1,44.3h-27.7V150h27.7V44.3L602.1,44.3z M577.1,27.5c2.7,2.8,6.4,4.2,11,4.2
			s8.3-1.4,11-4.2s4.2-6.6,4.1-10.6c0.1-3.9-1.3-7.7-4.1-10.5c-2.7-2.7-6.4-4.1-10.9-4.1c-4.6,0-8.2,1.4-10.9,4.1
			c-2.8,2.8-4.2,6.6-4.1,10.5C572.9,20.9,574.4,24.7,577.1,27.5L577.1,27.5z M658.7,131.7c-4.8,0-8.3-1.2-10.4-3.6
			c-2.1-2.4-3.2-6-3.4-10.8h-26.3c0,6.2,1.7,12.2,5,17.5c3.4,5.4,8.2,9.8,13.9,12.6c6.4,3.1,13.4,4.7,20.5,4.5
			c11.5,0,20.8-2.9,27.9-8.6s10.6-13.3,10.6-22.8c0-8.1-2.3-14.8-7-19.9s-12.6-9.8-23.9-13.9c-7.8-3.3-12.7-5.9-14.7-7.7
			c-1.9-1.5-3.1-3.8-3.1-6.2c-0.4-5.3,3.5-9.9,8.7-10.3c0.4,0,0.9,0,1.3,0c7.2,0,10.7,4.3,10.7,12.9h27.6c0-10.1-3.5-18.1-10.4-24.1
			s-16.2-9-27.8-9c-11,0-19.8,3-26.5,9c-6.6,5.8-10.2,14.2-10,22.9c0,7.4,2.1,13.5,6.4,18.4c4.3,4.9,12.1,9.7,23.5,14.4
			c7.7,3.4,12.7,6.1,15,8.1c2.2,2,3.4,4.2,3.4,6.5C669.8,128.4,666.1,131.7,658.7,131.7L658.7,131.7L658.7,131.7z M718.6,18.4v26
			h-12.2V65h12.2v56.2c0.2,20.5,9.2,30.7,27.1,30.7c5.2,0,10.4-0.8,15.2-2.6l0.2-21.5c-2.1,0.5-4.3,0.7-6.5,0.7
			c-3.3,0-5.5-0.8-6.6-2.3s-1.7-4.4-1.7-8.6V65h14.2V44.3h-14.2v-26L718.6,18.4L718.6,18.4z M804.1,44.3h-27.7V150h27.7V44.3z
			 M779.1,27.5c2.7,2.8,6.4,4.2,11,4.2s8.3-1.4,11-4.2s4.2-6.6,4.1-10.6c0.1-3.9-1.3-7.7-4.1-10.5c-2.7-2.7-6.4-4.1-10.9-4.1
			c-4.6,0-8.2,1.4-10.9,4.1c-2.8,2.8-4.2,6.6-4.1,10.5C774.9,20.9,776.4,24.7,779.1,27.5L779.1,27.5z M824.4,44.3V150h27.7V73.2
			c2.8-5.1,6.7-7.7,11.7-7.7c4.5,0,7.6,1.3,9.4,4.1s2.7,7,2.7,13V150h27.7V80.6c-0.5-25.5-9.9-38.2-28-38.2
			c-10.1,0-18.3,4.1-24.5,12.4l-0.8-10.4L824.4,44.3L824.4,44.3z M919.7,101.8c0.1,15.9,3.3,28.3,9.4,37.1
			c6.2,8.8,14.9,13.1,26.1,13.1c8.5,0,15.3-3.5,20.6-10.3v9.1c-0.1,6.6-1.4,11.4-4.2,14.3c-2.7,3-7.2,4.4-13.3,4.4
			c-4.1-0.1-8.1-1-11.8-2.6c-3.8-1.5-7.3-3.8-10.2-6.7l-9.3,19.1c3.1,3.6,7.9,6.5,14.3,8.8c5.8,2.2,12,3.4,18.3,3.5
			c14.1,0,25-3.6,32.5-10.7s11.3-17.4,11.3-30.9V44.3h-24.9l-1.1,9.4c-5.2-7.5-12.6-11.3-22.2-11.3c-11.3,0-20,4.3-26.3,12.8
			s-9.4,21.5-9.4,38.8v7.8H919.7z M947.4,93.9c0-10,1.3-17.2,3.9-21.7c2.6-4.5,6.7-6.7,12.2-6.7c5.1-0.2,9.8,2.4,12.4,6.7v50.5
			c-2.7,4.1-6.9,6.2-12.6,6.2c-5.5,0-9.6-2.2-12.1-6.7s-3.8-11.6-3.8-21.3L947.4,93.9L947.4,93.9z M1119.3,100
			c14.7,0,26.1-4,34.4-12.1s12.4-19.1,12.4-33s-4.2-25.3-12.5-34c-8.4-8.7-19.6-13.1-33.7-13.1h-48.4V150h28.7v-50H1119.3
			L1119.3,100z M1100.1,31.7h20c4.9-0.1,9.5,2.3,12.3,6.4c3.1,4.2,4.6,9.8,4.6,16.9c0,6.8-1.5,12-4.5,15.6s-7.2,5.4-12.7,5.4h-19.7
			L1100.1,31.7L1100.1,31.7z M1236.5,43.7c-2.4-0.9-5-1.4-7.6-1.3c-7.7,0-13.7,4.5-18.1,13.4l-0.8-11.4h-26V150h27.7V80.2
			c2.7-6.6,7.8-10,15.3-10l9.2,0.8L1236.5,43.7z M1243.8,100.5c0,16.2,3.8,28.8,11.3,37.8s18,13.6,31.6,13.6
			c13.5,0,23.9-4.5,31.4-13.6c7.5-9,11.2-21.6,11.2-37.7V94c0-16.1-3.8-28.8-11.3-37.9c-7.6-9.1-18.1-13.7-31.5-13.7
			c-13.3,0-23.8,4.6-31.3,13.7c-7.6,9.1-11.3,21.7-11.3,37.7L1243.8,100.5L1243.8,100.5z M1271.6,93.7c0-9.7,1.3-16.9,4-21.6
			c2.6-4.7,6.3-7,11-7c4.9,0,8.7,2.3,11.3,7c2.7,4.7,4,11.9,4,21.6l-0.1,11.7c-0.7,15.8-5.7,23.8-15,23.8
			c-10.1,0-15.1-9.5-15.1-28.5L1271.6,93.7L1271.6,93.7z"/>
	</g>
</g>
</svg>
